<svg width="24" height="13" viewBox="0 0 24 13" fill="none" xmlns="http://www.w3.org/2000/svg">
<path d="M12 12.6667C11.6106 12.6674 11.2332 12.5318 10.9333 12.2833L0.933314 3.95001C0.592952 3.66711 0.378912 3.2606 0.338279 2.81988C0.297646 2.37917 0.433749 1.94037 0.716647 1.60001C0.999544 1.25965 1.40606 1.04561 1.84677 1.00498C2.28748 0.964344 2.72629 1.10045 3.06665 1.38334L12 8.85001L20.9333 1.65001C21.1038 1.51157 21.3 1.40818 21.5105 1.3458C21.7211 1.28341 21.9419 1.26325 22.1603 1.28649C22.3787 1.30972 22.5903 1.37588 22.783 1.48117C22.9758 1.58646 23.1458 1.7288 23.2833 1.90001C23.4359 2.07138 23.5515 2.27242 23.6229 2.49055C23.6942 2.70867 23.7197 2.93917 23.6978 3.16761C23.6759 3.39605 23.607 3.6175 23.4956 3.8181C23.3841 4.01869 23.2324 4.1941 23.05 4.33334L13.05 12.3833C12.7415 12.5925 12.3718 12.6923 12 12.6667V12.6667Z" fill="white"/>
</svg>
