<svg width="0" height="0" class="hidden">
  <symbol fill="none" xmlns="http://www.w3.org/2000/svg" viewBox="0 0 104 104" id="about-arrow">
    <path d="M90.9489 41.0165C90.9861 41.1886 91.0182 41.3674 90.9815 41.5396C90.9006 41.9187 90.5698 41.7717 90.2758 41.6489C88.1268 40.7509 85.9705 39.8719 83.8437 38.9269C83.172 38.6335 82.9098 38.7626 82.577 39.4097C74.3479 55.4538 63.0551 68.8537 47.9402 78.8934C38.1621 85.4154 27.0799 89.7459 15.4584 91.586C14.4921 91.7416 13.5215 91.8795 12.5494 91.9984V91.9984C12.2717 92.0288 12.1629 91.4838 12.4212 91.3777V91.3777C31.4217 83.6432 45.5203 70.3944 55.8423 52.9329C59.7161 46.3797 62.6501 39.4009 64.9213 32.1448C65.235 31.1455 65.2306 31.1397 64.2497 30.7273C62.5544 30.0171 60.8546 29.3157 59.1652 28.5938C59.1626 28.5927 59.16 28.5916 59.1574 28.5904C58.8171 28.4399 58.7717 27.861 59.0916 27.6708V27.6708C67.1778 22.855 75.267 18.045 83.3591 13.2408C84.0278 12.8447 84.1618 12.9033 84.3474 13.6722C86.5499 22.7875 88.7504 31.9022 90.9489 41.0165V41.0165Z" stroke="currentColor" stroke-width="4"></path>
  </symbol>
  <symbol fill="none" xmlns="http://www.w3.org/2000/svg" viewBox="0 0 104 104" id="about-atom">
    <path d="M83.2703 41.7609C75.3524 38.405 64.7183 36.2327 53.361 35.6395C51.6119 35.5346 49.86 35.4831 48.1078 35.4851C56.5042 25.271 65.5123 18.4128 71.4452 18.1907C72.609 18.1474 73.5987 18.3884 74.3926 18.8949C76.9567 20.5607 77.6636 25.2872 76.3612 31.861C76.2198 32.763 76.799 33.6514 77.6636 33.822C77.8784 33.8663 78.0999 33.8678 78.3154 33.8265C78.5308 33.7851 78.7358 33.7018 78.9188 33.5812C79.1018 33.4606 79.259 33.3052 79.3814 33.1239C79.5038 32.9425 79.5891 32.7389 79.6322 32.5246C81.2609 24.2878 80.0564 18.6268 76.2198 16.1322C74.8467 15.2302 73.1745 14.8023 71.3174 14.8754C63.8972 15.1571 53.4181 23.1854 43.8009 35.5447C39.8796 35.6456 35.9684 35.9893 32.09 36.574C29.7517 26.1052 30.6734 18.5997 34.2435 16.7931C34.7356 16.5249 35.2767 16.4003 35.8994 16.3407C38.4335 16.1457 41.9166 17.7682 45.7287 20.9264C46.4356 21.5033 47.4824 21.4329 48.0643 20.7124C48.2052 20.5465 48.3117 20.3544 48.3775 20.1473C48.4433 19.9401 48.4672 19.7219 48.4477 19.5055C48.4282 19.2891 48.3658 19.0786 48.264 18.8864C48.1623 18.6942 48.0232 18.524 47.8549 18.3857C43.2788 14.6181 39.0752 12.7708 35.6302 13.0227C34.6174 13.1017 33.6285 13.37 32.7154 13.8136C28.3949 16.013 26.6683 22.2211 27.745 31.2922C27.9979 33.1665 28.3242 35.1276 28.8082 37.1319C16.9097 39.502 9.3372 44.2583 9.01092 50.2226C8.78252 54.4561 12.1405 58.4757 18.7233 61.8614C18.9174 61.9623 19.1297 62.0238 19.3479 62.0423C19.566 62.0608 19.7857 62.0359 19.9942 61.9692C20.2026 61.9024 20.3957 61.795 20.5621 61.6533C20.7285 61.5116 20.8651 61.3384 20.9638 61.1437C21.0652 60.95 21.1269 60.7382 21.1453 60.5206C21.1637 60.3029 21.1383 60.0838 21.0708 59.876C21.0032 59.6682 20.8947 59.4759 20.7517 59.3104C20.6087 59.1448 20.434 59.0093 20.2378 58.9118C14.9846 56.2167 12.1541 53.1831 12.3227 50.4068C12.5076 46.4983 18.7505 42.4895 29.5858 40.3633C30.6302 44.1545 31.9014 47.88 33.3924 51.52C29.6973 58.3348 27.019 65.0522 25.6486 71.0192C23.6067 79.9224 24.6997 86.2713 28.7619 88.8932C30.0643 89.7383 31.5788 90.1636 33.2782 90.1636C36.6634 90.1636 40.7692 88.4978 45.416 85.1987C45.5936 85.0724 45.7445 84.9125 45.8602 84.7282C45.9758 84.5438 46.0538 84.3385 46.0898 84.1241C46.1257 83.9097 46.119 83.6903 46.0698 83.4785C46.0207 83.2667 45.9302 83.0666 45.8034 82.8896C45.6767 82.7127 45.5162 82.5623 45.3311 82.4472C45.146 82.332 44.9399 82.2543 44.7247 82.2184C44.5094 82.1826 44.2892 82.1893 44.0766 82.2383C43.864 82.2872 43.6631 82.3774 43.4855 82.5037C37.8924 86.4934 33.1776 87.8206 30.5728 86.1251C27.8239 84.3347 27.2148 79.1152 28.9169 71.7668C30.0616 66.7586 32.2015 61.1843 35.1054 55.4421C35.826 57.0239 36.5927 58.603 37.3867 60.1848C42.5556 70.2852 48.8854 79.0583 55.1881 84.917C60.2156 89.5731 64.8896 92 68.7262 92C70.0014 92 71.1923 91.7291 72.2691 91.1955C76.4156 89.0801 78.2183 83.2106 77.3373 74.6758C76.5325 66.6773 73.5008 56.9399 68.7996 47.2215C68.6076 46.8292 68.2685 46.5279 67.8554 46.3825C67.4424 46.2371 66.9886 46.2592 66.5917 46.4441C66.3932 46.5376 66.2151 46.6692 66.0677 46.8314C65.9203 46.9935 65.8064 47.1831 65.7327 47.3892C65.6589 47.5952 65.6267 47.8138 65.6379 48.0323C65.6491 48.2507 65.7034 48.4649 65.7978 48.6624C75.5401 68.8902 76.2361 85.4533 70.7682 88.2323C64.9902 91.1793 51.096 79.7246 40.3477 58.6897C39.1656 56.4104 38.0745 54.0855 37.0767 51.7204C38.3084 49.5346 39.6108 47.319 41.0574 45.1196C42.4646 42.9703 43.9418 40.8673 45.4867 38.814H46.9196C48.8746 38.814 50.9981 38.8573 53.206 38.9846C76.8697 40.2279 92.9881 48.2372 92.6618 54.643C92.5204 57.4058 89.3038 60.2011 83.8657 62.3029C83.4714 62.4737 83.1587 62.7899 82.9932 63.1852C82.8278 63.5806 82.8223 64.0243 82.9781 64.4236C83.1338 64.8228 83.4386 65.1465 83.8287 65.3268C84.2187 65.5071 84.6636 65.53 85.0703 65.3907C91.9793 62.7255 95.7751 59.0553 95.9899 54.8137C96.2427 50.014 91.7563 45.3877 83.3002 41.8043V41.7745L83.2703 41.7609ZM38.2513 43.2859C37.293 44.7624 36.3718 46.2625 35.4888 47.7849C34.4842 45.1633 33.6103 42.4939 32.8704 39.7864C35.6437 39.3625 38.4356 39.0705 41.2368 38.9115C40.2035 40.3404 39.2124 41.7991 38.2649 43.2859V43.2452L38.2513 43.2859ZM52.4827 47.533C45.8401 47.533 45.8401 57.4654 52.4827 57.4654C59.1389 57.4654 59.1389 47.533 52.4827 47.533Z" fill="currentColor"></path>
  </symbol>
  <symbol fill="none" xmlns="http://www.w3.org/2000/svg" viewBox="0 0 117 104" id="about-hand">
    <path d="M56.4029 51.0995C57.5573 52.3135 59.4374 52.3135 60.6084 51.0995L78.5683 32.3643C83.7798 26.9177 83.483 17.8946 77.6448 12.8745C72.5652 8.49422 64.9953 9.28169 60.3445 14.1377L58.4974 16.0572L56.6667 14.1541C52.016 9.28169 44.4461 8.49422 39.3665 12.8745C33.5448 17.8946 33.2314 26.9177 38.4429 32.3643L56.4029 51.0995ZM104.23 63.8302C102.284 62.0748 99.2495 62.1896 97.2044 63.8302L81.9657 75.9539C80.1021 77.4468 77.7767 78.2507 75.3688 78.2507H55.8586C54.4073 78.2507 53.2199 77.0695 53.2199 75.6258C53.2199 74.1821 54.4073 73.0009 55.8586 73.0009H68.772C71.3942 73.0009 73.8351 71.2127 74.2639 68.637C74.8081 65.3559 72.2683 62.5013 69.0523 62.5013H42.6649C38.212 62.5013 33.9076 64.027 30.4442 66.816L22.7754 73.0009H13.6387C12.1874 73.0009 11 74.1821 11 75.6258V91.3751C11 92.8188 12.1874 94 13.6387 94H72.4827C74.8741 94 77.1995 93.1961 79.0796 91.7032L104.016 71.8525C106.523 69.8674 106.72 66.0613 104.23 63.8302Z" stroke="currentColor" stroke-width="4"></path>
  </symbol>
  <symbol fill="none" xmlns="http://www.w3.org/2000/svg" viewBox="0 0 67 96" id="about-lamp">
    <path fill-rule="evenodd" clip-rule="evenodd" d="M33.5 10.625C19.9665 10.625 10.5909 20.3425 10.5909 32.1875C10.5909 37.8455 13.0193 41.5312 16.2265 45.4355L17.4522 46.8903C18.7294 48.4083 20.144 50.0872 21.3066 51.7662C22.9332 54.1295 24.3822 56.9183 24.8633 60.3338C24.9779 61.4433 24.6599 62.5543 23.976 63.4334C23.292 64.3125 22.2954 64.8913 21.1954 65.0483C20.0954 65.2054 18.9776 64.9284 18.0767 64.2755C17.1758 63.6226 16.5619 62.6446 16.364 61.547C16.1349 59.9255 15.4305 58.4017 14.2449 56.6768C13.2758 55.3223 12.2398 54.0173 11.1407 52.7668C10.6596 52.1918 10.1499 51.588 9.60582 50.9268C6.01482 46.5625 2 40.9045 2 32.1875C2 15.2825 15.5335 2 33.5 2C51.4665 2 65 15.2825 65 32.1875C65 40.9045 60.9852 46.5625 57.3942 50.9268C56.8501 51.588 56.3404 52.1917 55.8593 52.761C54.6737 54.1698 53.6657 55.3657 52.7608 56.6768C51.5695 58.4017 50.8708 59.9255 50.6417 61.547C50.562 62.1077 50.3731 62.6471 50.0857 63.1344C49.7983 63.6218 49.4182 64.0475 48.9669 64.3874C48.5157 64.7272 48.0022 64.9745 47.4557 65.1151C46.9093 65.2557 46.3406 65.2869 45.7821 65.2069C45.2237 65.1268 44.6864 64.9371 44.201 64.6486C43.7156 64.3601 43.2915 63.9785 42.953 63.5254C42.6145 63.0724 42.3682 62.5568 42.2281 62.0082C42.0881 61.4596 42.057 60.8887 42.1367 60.328C42.6178 56.9183 44.0668 54.1295 45.6934 51.7662C46.856 50.0872 48.2706 48.4083 49.5478 46.8903C49.9774 46.3843 50.3897 45.8955 50.7677 45.4355C53.9807 41.5312 56.4091 37.8455 56.4091 32.1875C56.4091 20.3425 47.0335 10.625 33.5 10.625ZM22.0455 89.6875C22.0455 88.5438 22.498 87.4469 23.3036 86.6381C24.1091 85.8294 25.2017 85.375 26.3409 85.375H40.6591C41.7983 85.375 42.8909 85.8294 43.6964 86.6381C44.502 87.4469 44.9545 88.5438 44.9545 89.6875C44.9545 90.8312 44.502 91.9281 43.6964 92.7369C42.8909 93.5456 41.7983 94 40.6591 94H26.3409C25.2017 94 24.1091 93.5456 23.3036 92.7369C22.498 91.9281 22.0455 90.8312 22.0455 89.6875ZM20.6136 71C19.4744 71 18.3818 71.4544 17.5763 72.2631C16.7707 73.0719 16.3182 74.1688 16.3182 75.3125C16.3182 76.4562 16.7707 77.5531 17.5763 78.3619C18.3818 79.1706 19.4744 79.625 20.6136 79.625H46.3864C47.5256 79.625 48.6182 79.1706 49.4237 78.3619C50.2293 77.5531 50.6818 76.4562 50.6818 75.3125C50.6818 74.1688 50.2293 73.0719 49.4237 72.2631C48.6182 71.4544 47.5256 71 46.3864 71H20.6136Z" fill="currentColor" stroke="white" stroke-width="4"></path>
  </symbol>
  <symbol fill="none" xmlns="http://www.w3.org/2000/svg" viewBox="0 0 104 104" id="about-tools">
    <path d="M72 86L92 52L72 18H32L12 52L32 86H72Z" stroke="currentColor" stroke-width="4" stroke-linejoin="round"></path>
    <path d="M52 62C54.6522 62 57.1957 60.9464 59.0711 59.0711C60.9464 57.1957 62 54.6522 62 52C62 49.3478 60.9464 46.8043 59.0711 44.9289C57.1957 43.0536 54.6522 42 52 42C49.3478 42 46.8043 43.0536 44.9289 44.9289C43.0536 46.8043 42 49.3478 42 52C42 54.6522 43.0536 57.1957 44.9289 59.0711C46.8043 60.9464 49.3478 62 52 62Z" stroke="currentColor" stroke-width="4" stroke-linejoin="round"></path>
  </symbol>
   <symbol fill="none" xmlns="http://www.w3.org/2000/svg" viewBox="0 0 16 16" id="footer-instagram">
    <path d="M15.4559 4.9208C15.4475 4.28965 15.3293 3.66478 15.1067 3.07413C14.9137 2.57592 14.6188 2.12346 14.241 1.74566C13.8632 1.36785 13.4108 1.07301 12.9126 0.879964C12.3295 0.661095 11.7135 0.542749 11.0909 0.529964C10.2892 0.494131 10.0351 0.484131 8.00006 0.484131C5.96506 0.484131 5.70423 0.484131 4.90839 0.529964C4.28602 0.542843 3.67035 0.661188 3.08756 0.879964C2.58927 1.07287 2.13674 1.36767 1.75892 1.74549C1.3811 2.12332 1.0863 2.57585 0.893392 3.07413C0.674084 3.65674 0.555995 4.27256 0.544225 4.89497C0.508392 5.69747 0.497559 5.95163 0.497559 7.98663C0.497559 10.0216 0.497559 10.2816 0.544225 11.0783C0.556725 11.7016 0.674225 12.3166 0.893392 12.9008C1.08662 13.3989 1.38164 13.8513 1.75959 14.2289C2.13754 14.6066 2.59011 14.9013 3.08839 15.0941C3.66959 15.3218 4.28537 15.4486 4.90923 15.4691C5.71173 15.505 5.96589 15.5158 8.00089 15.5158C10.0359 15.5158 10.2967 15.5158 11.0926 15.4691C11.7152 15.4569 12.3312 15.3388 12.9142 15.12C13.4123 14.9267 13.8646 14.6318 14.2424 14.254C14.6202 13.8762 14.9151 13.4239 15.1084 12.9258C15.3276 12.3425 15.4451 11.7275 15.4576 11.1033C15.4934 10.3016 15.5042 10.0475 15.5042 8.01163C15.5026 5.97663 15.5026 5.7183 15.4559 4.9208ZM7.99506 11.835C5.86673 11.835 4.14256 10.1108 4.14256 7.98247C4.14256 5.85413 5.86673 4.12997 7.99506 4.12997C9.01681 4.12997 9.99671 4.53585 10.7192 5.25834C11.4417 5.98082 11.8476 6.96072 11.8476 7.98247C11.8476 9.00421 11.4417 9.98411 10.7192 10.7066C9.99671 11.4291 9.01681 11.835 7.99506 11.835ZM12.0009 4.8858C11.8829 4.88591 11.766 4.86275 11.657 4.81764C11.5479 4.77253 11.4489 4.70637 11.3654 4.62293C11.282 4.53949 11.2158 4.44041 11.1707 4.33137C11.1256 4.22233 11.1025 4.10547 11.1026 3.98747C11.1026 3.86955 11.1258 3.75279 11.1709 3.64385C11.216 3.53491 11.2822 3.43592 11.3656 3.35254C11.4489 3.26916 11.5479 3.20302 11.6569 3.1579C11.7658 3.11277 11.8826 3.08955 12.0005 3.08955C12.1184 3.08955 12.2352 3.11277 12.3441 3.1579C12.453 3.20302 12.552 3.26916 12.6354 3.35254C12.7188 3.43592 12.7849 3.53491 12.83 3.64385C12.8752 3.75279 12.8984 3.86955 12.8984 3.98747C12.8984 4.48413 12.4967 4.8858 12.0009 4.8858Z" fill="currentColor"></path>
    <path d="M7.99518 10.485C9.37727 10.485 10.4977 9.3646 10.4977 7.98251C10.4977 6.60042 9.37727 5.48001 7.99518 5.48001C6.61308 5.48001 5.49268 6.60042 5.49268 7.98251C5.49268 9.3646 6.61308 10.485 7.99518 10.485Z" fill="currentColor"></path>
  </symbol>
  <symbol fill="none" xmlns="http://www.w3.org/2000/svg" viewBox="0 0 20 12" id="footer-vk">
    <path fill-rule="evenodd" clip-rule="evenodd" d="M19.5417 0.956748C19.68 0.501748 19.5417 0.166748 18.8792 0.166748H16.6917C16.135 0.166748 15.8783 0.455915 15.7392 0.775082C15.7392 0.775082 14.6267 3.43842 13.0508 5.16842C12.5408 5.67008 12.3092 5.82925 12.0308 5.82925C11.8917 5.82925 11.6825 5.67008 11.6825 5.21425V0.956748C11.6825 0.410081 11.5292 0.166748 11.0658 0.166748H7.62583C7.27833 0.166748 7.06917 0.420081 7.06917 0.660915C7.06917 1.17841 7.8575 1.29841 7.93833 2.75508V5.92008C7.93833 6.61425 7.81083 6.74008 7.5325 6.74008C6.79083 6.74008 4.98667 4.06425 3.91583 1.00258C3.70833 0.406748 3.49833 0.166748 2.93917 0.166748H0.75C0.125 0.166748 0 0.455915 0 0.775082C0 1.34342 0.741667 4.16675 3.45417 7.90092C5.2625 10.4509 7.80833 11.8334 10.1275 11.8334C11.5183 11.8334 11.69 11.5268 11.69 10.9976V9.07008C11.69 8.45592 11.8217 8.33342 12.2625 8.33342C12.5875 8.33342 13.1433 8.49342 14.4417 9.72258C15.925 11.1801 16.1692 11.8334 17.0042 11.8334H19.1917C19.8167 11.8334 20.13 11.5268 19.95 10.9201C19.7517 10.3168 19.0433 9.44092 18.1042 8.40175C17.5942 7.81008 16.8292 7.17258 16.5967 6.85342C16.2725 6.44425 16.365 6.26175 16.5967 5.89758C16.5967 5.89758 19.2633 2.20925 19.5408 0.956748H19.5417Z" fill="currentColor"></path>
  </symbol>
  <symbol fill="none" xmlns="http://www.w3.org/2000/svg" viewBox="0 0 17 18" id="footer-google">
    <path d="M16.7942 7.54C16.8967 8.08917 16.9525 8.66333 16.9525 9.2625C16.9525 13.9492 13.8158 17.2817 9.07833 17.2817C8.00096 17.282 6.93409 17.07 5.93866 16.6579C4.94324 16.2458 4.03878 15.6415 3.27697 14.8797C2.51515 14.1179 1.91091 13.2134 1.49877 12.218C1.08663 11.2226 0.874672 10.1557 0.875 9.07833C0.874672 8.00097 1.08663 6.93409 1.49877 5.93867C1.91091 4.94324 2.51515 4.03878 3.27697 3.27697C4.03878 2.51515 4.94324 1.91091 5.93866 1.49877C6.93409 1.08663 8.00096 0.874672 9.07833 0.875C11.2933 0.875 13.1442 1.69 14.5642 3.01333L12.2517 5.32583V5.32C11.3908 4.5 10.2983 4.07917 9.07833 4.07917C6.37167 4.07917 4.17167 6.36584 4.17167 9.07334C4.17167 11.78 6.37167 14.0717 9.07833 14.0717C11.5342 14.0717 13.2058 12.6675 13.5492 10.7392H9.07833V7.54H16.795H16.7942Z" fill="currentColor"></path>
  </symbol>
</svg>
